<svg width="139" height="107" viewBox="0 0 139 107" fill="none" xmlns="http://www.w3.org/2000/svg">
<path id="Path 12977" opacity="0.06" d="M95.1741 16.724V10.403H102.555C103.553 10.4261 104.519 10.0521 105.241 9.36316C105.963 8.67423 106.382 7.72679 106.406 6.72904V3.87103C106.382 2.87336 105.963 1.92607 105.241 1.2372C104.519 0.548328 103.553 0.174215 102.555 0.19703H80.5191C79.5214 0.174215 78.5554 0.548328 77.8333 1.2372C77.1113 1.92607 76.6922 2.87336 76.6681 3.87103V6.72904C76.6919 7.72679 77.111 8.67423 77.8331 9.36316C78.5552 10.0521 79.5213 10.4261 80.5191 10.403H87.9001V16.715C80.911 17.1853 74.1133 19.2 67.9966 22.6137C61.8799 26.0275 56.5965 30.7555 52.5271 36.457H43.9621C43.2848 36.4238 42.6079 36.5286 41.9724 36.7649C41.3369 37.0012 40.756 37.3641 40.265 37.8316C39.7739 38.2992 39.383 38.8617 39.1159 39.4848C38.8488 40.108 38.711 40.779 38.711 41.457C38.711 42.1351 38.8488 42.806 39.1159 43.4292C39.383 44.0524 39.7739 44.6148 40.265 45.0824C40.756 45.55 41.3369 45.9129 41.9724 46.1492C42.6079 46.3855 43.2848 46.4902 43.9621 46.457H62.3021C63.6599 46.4259 64.9745 46.935 65.9572 47.8725C66.9399 48.81 67.5103 50.0993 67.5431 51.457C67.5103 52.8148 66.9399 54.104 65.9572 55.0415C64.9745 55.9791 63.6599 56.4882 62.3021 56.457H5.87206C5.19484 56.4238 4.51794 56.5286 3.88242 56.7649C3.24689 57.0012 2.666 57.3641 2.17497 57.8316C1.68394 58.2992 1.29301 58.8617 1.02589 59.4848C0.758768 60.108 0.621033 60.779 0.621033 61.457C0.621033 62.1351 0.758768 62.806 1.02589 63.4292C1.29301 64.0524 1.68394 64.6148 2.17497 65.0824C2.666 65.55 3.24689 65.9129 3.88242 66.1492C4.51794 66.3855 5.19484 66.4902 5.87206 66.457H47.0571C47.729 66.4135 48.4027 66.5061 49.038 66.7293C49.6732 66.9525 50.2568 67.3018 50.7538 67.756C51.2507 68.2103 51.6508 68.7603 51.9301 69.3729C52.2093 69.9856 52.3619 70.6484 52.3788 71.3215C52.3956 71.9946 52.2764 72.6641 52.0281 73.29C51.7799 73.9159 51.4078 74.4852 50.9342 74.9637C50.4605 75.4423 49.8951 75.8203 49.2719 76.075C48.6486 76.3297 47.9803 76.4559 47.3071 76.446V76.458H26.6251C25.2673 76.4269 23.9526 76.936 22.9699 77.8735C21.9872 78.811 21.4168 80.1003 21.3841 81.458C21.4168 82.8158 21.9872 84.105 22.9699 85.0426C23.9526 85.9801 25.2673 86.4892 26.6251 86.458H52.6391C57.0793 92.61 62.9274 97.6099 69.6948 101.04C76.4622 104.47 83.9523 106.23 91.5391 106.174C117.475 106.174 138.5 86.116 138.5 61.374C138.499 37.804 119.409 18.497 95.1741 16.724ZM65.716 84.756L80.466 68.751C80.6992 68.4914 80.8504 68.1686 80.9005 67.8233C80.9507 67.478 80.8976 67.1256 80.748 66.8104C80.5983 66.4952 80.3588 66.2312 80.0595 66.0518C79.7603 65.8724 79.4146 65.7855 79.0661 65.802H73.1131C72.7234 65.8218 72.3381 65.7119 72.0175 65.4895C71.6969 65.2671 71.4591 64.9447 71.3411 64.5727C71.2232 64.2008 71.2318 63.8002 71.3657 63.4337C71.4996 63.0672 71.7512 62.7554 72.0811 62.547L114.928 35.347C116.74 34.196 118.794 36.439 117.357 37.999L102.607 54.004C102.374 54.2636 102.223 54.5864 102.173 54.9317C102.122 55.277 102.176 55.6295 102.325 55.9447C102.475 56.2599 102.714 56.5238 103.014 56.7032C103.313 56.8827 103.659 56.9696 104.007 56.953H109.961C110.351 56.9331 110.736 57.043 111.057 57.2655C111.378 57.4881 111.616 57.8107 111.734 58.1829C111.852 58.5551 111.843 58.9559 111.709 59.3225C111.574 59.6891 111.322 60.0009 110.992 60.209L68.1451 87.409C66.3341 88.558 64.279 86.315 65.716 84.756ZM91.5381 96.993C84.6488 97.0071 77.8813 95.1771 71.938 91.693C71.7254 91.5735 71.5395 91.4116 71.3917 91.2175C71.2439 91.0234 71.1375 90.8011 71.0788 90.5643C71.0202 90.3275 71.0106 90.0812 71.0507 89.8405C71.0908 89.5999 71.1798 89.37 71.3121 89.165C71.5941 88.7461 72.0254 88.4506 72.518 88.3391C73.0105 88.2276 73.5271 88.3084 73.9621 88.565C79.2924 91.6888 85.3618 93.3289 91.5401 93.315C110.003 93.315 125.023 78.986 125.023 61.374C125.025 54.8613 122.959 48.5161 119.123 43.253C118.98 43.0556 118.879 42.831 118.826 42.593C118.773 42.355 118.769 42.1087 118.815 41.8692C118.862 41.6298 118.956 41.4024 119.093 41.2009C119.231 40.9995 119.408 40.8283 119.614 40.698C120.036 40.4207 120.548 40.3147 121.046 40.4016C121.543 40.4886 121.989 40.7619 122.292 41.166C126.573 47.0343 128.879 54.1104 128.879 61.374C128.871 81.016 112.124 96.993 91.5381 96.993Z" fill="black"/>
</svg>
