<svg width="153" height="109" viewBox="0 0 153 109" fill="none" xmlns="http://www.w3.org/2000/svg">
<g id="shutterstock_232715776 [Converted]" opacity="0.06">
<path id="Path 896" d="M113.491 71.575L112.97 70.321C112.811 69.9376 112.541 69.61 112.196 69.3797C111.85 69.1494 111.444 69.0266 111.029 69.027H102.645L100.106 61.205C99.8293 60.3532 99.2899 59.6108 98.5652 59.0844C97.8405 58.5581 96.9678 58.2747 96.0721 58.275H57.2721C56.3765 58.2752 55.5039 58.5587 54.7793 59.085C54.0547 59.6113 53.5152 60.3534 53.2381 61.205L50.6991 69.027H42.3171C41.9019 69.0266 41.4959 69.1494 41.1504 69.3797C40.8049 69.61 40.5354 69.9376 40.3761 70.321L39.8551 71.575C39.7446 71.8404 39.6895 72.1257 39.6934 72.4131C39.6973 72.7006 39.76 72.9843 39.8777 73.2466C39.9954 73.5089 40.1655 73.7443 40.3776 73.9384C40.5898 74.1325 40.8394 74.2811 41.1111 74.375L46.6381 76.284L42.2751 80.152C41.7877 80.5837 41.3975 81.1139 41.1303 81.7076C40.8631 82.3013 40.725 82.945 40.7251 83.596V106.706H53.4121V100.362H99.9351V106.706H112.622V83.594C112.622 82.943 112.484 82.2993 112.217 81.7056C111.95 81.1119 111.559 80.5817 111.072 80.15L106.709 76.282L112.236 74.373C112.508 74.2797 112.758 74.1315 112.97 73.9377C113.182 73.7439 113.353 73.5085 113.47 73.2462C113.588 72.9839 113.651 72.7002 113.654 72.4128C113.658 72.1253 113.602 71.8402 113.491 71.575ZM57.5231 89.212H47.7661C47.4727 89.2121 47.1821 89.1545 46.911 89.0422C46.6399 88.93 46.3936 88.7655 46.1861 88.558C45.9786 88.3505 45.8141 88.1042 45.7019 87.8331C45.5896 87.562 45.5319 87.2714 45.5321 86.978V84.868C45.532 84.5345 45.6067 84.2052 45.7504 83.9043C45.8942 83.6034 46.1035 83.3385 46.363 83.1289C46.6225 82.9194 46.9255 82.7706 47.25 82.6935C47.5745 82.6163 47.9121 82.6127 48.2381 82.683L57.9951 84.793C58.5345 84.9091 59.0118 85.2207 59.3352 85.6677C59.6586 86.1148 59.8051 86.6657 59.7464 87.2143C59.6878 87.763 59.4283 88.2705 59.0178 88.6392C58.6072 89.0078 58.0748 89.2125 57.5231 89.212ZM53.5001 74.025L57.2481 62.478H96.1001L99.8481 74.025H53.5001ZM107.817 84.866V86.976C107.817 87.2694 107.76 87.56 107.647 87.8311C107.535 88.1022 107.371 88.3485 107.163 88.556C106.956 88.7635 106.709 88.928 106.438 89.0402C106.167 89.1524 105.876 89.2102 105.583 89.21H95.8261C95.2743 89.2105 94.7419 89.0068 94.3314 88.6382C93.9209 88.2695 93.6613 87.762 93.6027 87.2133C93.5441 86.6647 93.6906 86.1138 94.0139 85.6667C94.3373 85.2197 94.8147 84.9081 95.3541 84.792L105.111 82.682C105.437 82.6115 105.775 82.615 106.099 82.692C106.424 82.769 106.727 82.9177 106.986 83.1272C107.246 83.3366 107.455 83.6015 107.599 83.9024C107.743 84.2033 107.817 84.5325 107.817 84.866Z" fill="black"/>
<g id="Group 1000">
<path id="Path 897" d="M14.532 35.76V108.034H29.083V49.944H124.266V108.034H138.817V35.76L76.675 15.495L14.532 35.76Z" fill="black"/>
<path id="Path 898" d="M76.6751 0.375977L0.500061 27.436L3.05006 34.626L76.6751 8.50998L150.3 34.626L152.85 27.436L76.6751 0.375977Z" fill="black"/>
</g>
</g>
</svg>
