<svg width="148" height="111" viewBox="0 0 148 111" fill="none" xmlns="http://www.w3.org/2000/svg">
<g id="Group 11096" opacity="0.06">
<path id="Path 12982" d="M12.8551 83.3009C13.5488 87.8589 14.7457 92.3259 16.4241 96.62L7.24009 104.772C8.05809 106.547 8.95309 108.301 9.92509 110.035H39.2951C32.1221 103.093 27.1856 94.1669 25.1182 84.4011C23.0508 74.6353 23.9468 64.4746 27.6913 55.2213C31.4358 45.968 37.8582 38.0437 46.1354 32.464C54.4125 26.8843 64.1674 23.9034 74.1496 23.9034C84.1318 23.9034 93.8866 26.8843 102.164 32.464C110.441 38.0437 116.863 45.968 120.608 55.2213C124.352 64.4746 125.248 74.6353 123.181 84.4011C121.114 94.1669 116.177 103.093 109.004 110.035H138.386C139.349 108.314 140.243 106.561 141.066 104.775L131.893 96.6289C133.577 92.3339 134.773 87.8632 135.458 83.3009L147.482 80.8319C147.907 76.298 147.91 71.7345 147.491 67.2L135.442 64.73C134.748 60.172 133.551 55.705 131.873 51.411L141.057 43.259C140.113 41.211 139.068 39.19 137.923 37.196C136.778 35.202 135.55 33.2863 134.239 31.449L122.595 35.32C119.721 31.7114 116.45 28.4374 112.844 25.56L116.718 13.911C113 11.2803 109.046 9.00049 104.907 7.10096L96.7611 16.274C92.4661 14.5897 87.9954 13.3938 83.4331 12.709L80.9641 0.684972C76.4302 0.260057 71.8666 0.257041 67.3321 0.67597L64.8611 12.72C60.3031 13.4137 55.8362 14.6107 51.5421 16.289L43.3901 7.10496C41.3421 8.04895 39.3211 9.09363 37.3271 10.239C35.3331 11.3843 33.4177 12.6123 31.5811 13.923L35.4531 25.565C31.8445 28.4392 28.5706 31.71 25.6931 35.316L14.0441 31.442C11.4134 35.1597 9.13357 39.1136 7.23408 43.253L16.4071 51.399C14.7229 55.694 13.5271 60.1647 12.8421 64.727L0.818062 67.196C0.393164 71.7299 0.390179 76.2935 0.809089 80.828L12.8551 83.3009Z" fill="black"/>
<g id="Group 11095">
<path id="Path 12983" d="M103.086 41.297V52.282L96.114 56.353L89.1421 52.282V41.297C86.8184 42.6012 84.9068 44.5305 83.6243 46.8661C82.3417 49.2018 81.7395 51.8502 81.886 54.5108C82.0325 57.1714 82.9218 59.7376 84.4531 61.9183C85.9844 64.099 88.0963 65.8068 90.5491 66.848V104.471C90.5491 105.947 91.1352 107.362 92.1787 108.405C93.2222 109.449 94.6374 110.035 96.113 110.035C96.8437 110.035 97.5672 109.891 98.2423 109.611C98.9174 109.332 99.5307 108.922 100.047 108.405C100.564 107.889 100.974 107.275 101.254 106.6C101.533 105.925 101.677 105.202 101.677 104.471V66.848C104.13 65.8069 106.242 64.0992 107.773 61.9186C109.305 59.7379 110.194 57.1717 110.341 54.5111C110.487 51.8505 109.885 49.2021 108.603 46.8664C107.32 44.5307 105.41 42.6012 103.086 41.297ZM96.114 106.263C95.7394 106.263 95.3732 106.152 95.0618 105.944C94.7503 105.736 94.5076 105.44 94.3642 105.094C94.2209 104.748 94.1834 104.367 94.2565 104C94.3295 103.632 94.5099 103.295 94.7748 103.03C95.0396 102.765 95.3771 102.584 95.7445 102.511C96.1119 102.438 96.4928 102.476 96.8389 102.619C97.1849 102.762 97.4807 103.005 97.6888 103.317C97.8969 103.628 98.008 103.994 98.008 104.369C98.008 104.871 97.8087 105.353 97.4537 105.708C97.0987 106.063 96.6172 106.263 96.1151 106.263H96.114Z" fill="black"/>
<path id="Path 12984" d="M59.3881 105.672V103.884H55.8371C52.4524 103.886 49.2008 102.565 46.7751 100.205V105.672C46.7751 108.118 47.8751 110.034 49.2751 110.034H56.8951C58.2961 110.035 59.3881 108.118 59.3881 105.672Z" fill="black"/>
<path id="Path 12985" d="M42.3801 70.938H45.3961C47.8481 70.938 49.8431 69.3379 49.8431 67.3639C49.8431 65.3899 47.8481 63.7899 45.3961 63.7899H42.3801C39.9281 63.7899 37.9331 65.3899 37.9331 67.3639C37.9331 69.3379 39.9291 70.938 42.3801 70.938Z" fill="black"/>
<g id="Group 11094">
<path id="Path 12986" d="M70.6021 93.377H88.5121V80.1539H66.2811C64.4296 80.1666 62.6081 79.6868 61.0031 78.7639L55.2601 75.3439C55.0295 75.2 54.8645 74.9715 54.8005 74.7073C54.7364 74.4432 54.7785 74.1645 54.9175 73.931C55.0566 73.6974 55.2816 73.5277 55.5444 73.4581C55.8071 73.3886 56.0867 73.4248 56.3231 73.559L62.066 76.9789C63.3488 77.7125 64.8034 78.092 66.2811 78.0789H88.5131V69.645H56.8201C56.5631 69.645 56.3091 69.6559 56.0561 69.6719L61.5881 60.21C63.6181 56.677 67.16 54.3939 70.61 54.3939H79.842C79.833 54.1729 79.8271 53.951 79.8271 53.728C79.8271 53.505 79.8271 53.3119 79.8401 53.1049C79.8401 53.0469 79.8461 52.989 79.8491 52.931C79.8571 52.778 79.8661 52.6239 79.8781 52.4719C79.8827 52.4126 79.8877 52.3533 79.8931 52.2939C79.9071 52.1333 79.9237 51.9736 79.9431 51.8149C79.9481 51.7699 79.953 51.724 79.959 51.679C79.985 51.479 80.0141 51.2729 80.0471 51.0709H70.61C65.894 51.0709 61.1431 54.0339 58.5101 58.6099L51.2581 71.0159C49.3353 72.0284 47.7256 73.5469 46.6028 75.4075C45.48 77.268 44.8867 79.3999 44.8871 81.5729V90.8499C44.8871 93.7551 46.0411 96.5413 48.0954 98.5956C50.1497 100.65 52.9359 101.804 55.8411 101.804H61.1201L66.2501 95.554C66.7735 94.8964 67.4341 94.361 68.1857 93.985C68.9374 93.609 69.762 93.4015 70.6021 93.377ZM61.415 87.53C57.015 89.437 49.399 86.139 48.274 84.059C46.937 81.586 47.4611 79.2359 49.9831 77.9949C53.3411 76.3439 65.566 85.7319 61.42 87.5309L61.415 87.53Z" fill="black"/>
<path id="Path 12987" d="M70.6021 95.4569C70.0641 95.4853 69.5385 95.6294 69.0613 95.8795C68.5842 96.1296 68.1666 96.4796 67.8371 96.9059L63.8121 101.806H88.5121V95.4569H70.6021Z" fill="black"/>
</g>
</g>
</g>
</svg>
