<svg width="105" height="87" viewBox="0 0 105 87" fill="none" xmlns="http://www.w3.org/2000/svg">
<g id="Group 11093" opacity="0.06">
<g id="Group 11092">
<path id="Path 12978" d="M52.559 48.66C48.8934 48.66 45.378 47.2039 42.786 44.6119C40.1941 42.02 38.738 38.5046 38.738 34.839C38.738 31.1734 40.1941 27.658 42.786 25.066C45.378 22.4741 48.8934 21.018 52.559 21.018C56.2246 21.018 59.74 22.4741 62.3319 25.066C64.9239 27.658 66.38 31.1734 66.38 34.839C66.38 38.5046 64.9239 42.02 62.3319 44.6119C59.74 47.2039 56.2246 48.66 52.559 48.66ZM52.559 11.16C48.2892 11.1498 44.0961 12.2948 40.4241 14.4738C36.7521 16.6528 33.738 19.7846 31.7011 23.5372C29.6642 27.2899 28.6804 31.5237 28.854 35.79C29.0275 40.0563 30.352 44.1962 32.687 47.771C37.878 55.756 46.508 66.571 52.559 74.4C58.61 66.568 67.271 55.757 72.431 47.771C74.766 44.1962 76.0905 40.0563 76.264 35.79C76.4376 31.5237 75.4538 27.2899 73.4169 23.5372C71.38 19.7846 68.3659 16.6528 64.6939 14.4738C61.0219 12.2948 56.8288 11.1498 52.559 11.16Z" fill="black"/>
<path id="Path 12979" d="M80.9031 38.2501C80.1097 38.2548 79.3177 38.1827 78.5381 38.0351C78.0621 41.9899 76.6858 45.7831 74.515 49.1231C73.747 50.3231 72.948 51.4881 72.15 52.6861C75.221 56.6791 78.3231 60.6101 80.9031 63.986C86.9841 56.154 95.615 45.3431 100.803 37.3571C103.986 32.4436 105.239 26.5264 104.322 20.7444C103.404 14.9623 100.38 9.72397 95.8323 6.0375C91.2843 2.35104 85.5334 0.476974 79.6866 0.775968C73.8399 1.07496 68.3102 3.5259 64.162 7.65707C63.3184 8.49822 62.5383 9.4007 61.828 10.3571C64.9579 11.5328 67.835 13.2946 70.3051 15.5481C70.5642 15.226 70.841 14.9186 71.134 14.627C72.7432 13.0127 74.7261 11.8206 76.9066 11.1566C79.0872 10.4926 81.398 10.3772 83.6338 10.8208C85.8696 11.2643 87.9613 12.253 89.7233 13.6991C91.4852 15.1452 92.863 17.004 93.734 19.1104C94.6051 21.2169 94.9426 23.5057 94.7166 25.7739C94.4905 28.0421 93.7079 30.2193 92.4384 32.1125C91.1688 34.0056 89.4515 35.556 87.4388 36.6259C85.4262 37.6959 83.1804 38.2524 80.901 38.2461L80.9031 38.2501Z" fill="black"/>
<path id="Path 12980" d="M24.206 38.25C24.9995 38.256 25.7917 38.184 26.571 38.0349C27.0469 41.9898 28.4232 45.783 30.594 49.123C31.362 50.323 32.16 51.4879 32.994 52.6859C29.894 56.6789 26.821 60.6099 24.21 63.9859C18.159 56.1539 9.49802 45.343 4.31002 37.357C1.1324 32.4395 -0.115197 26.5209 0.807095 20.7391C1.72939 14.9574 4.75648 9.72064 9.30633 6.0358C13.8562 2.35096 19.6076 0.478118 25.4548 0.77738C31.302 1.07664 36.8322 3.52686 40.9821 7.65696C41.806 8.50651 42.5743 9.4084 43.282 10.357C40.1521 11.5327 37.2751 13.2945 34.805 15.5479C34.5459 15.2259 34.2691 14.9184 33.976 14.6269C32.3668 13.0125 30.384 11.8205 28.2034 11.1565C26.0229 10.4925 23.7121 10.3771 21.4763 10.8207C19.2404 11.2642 17.1487 12.2529 15.3867 13.699C13.6248 15.1451 12.2471 17.0039 11.3761 19.1103C10.505 21.2167 10.1675 23.5056 10.3936 25.7738C10.6196 28.042 11.4021 30.2192 12.6717 32.1123C13.9412 34.0055 15.6586 35.5558 17.6713 36.6258C19.6839 37.6958 21.9296 38.2523 24.209 38.2459L24.206 38.25Z" fill="black"/>
</g>
<path id="Path 12981" d="M13.9481 55.3881C9.12606 57.9371 4.36505 61.838 4.36505 67.088C4.36505 74.428 13.5481 79.066 19.3531 81.188C29.5531 84.904 41.774 86.256 52.553 86.256C63.332 86.256 75.5531 84.905 85.7531 81.188C91.5531 79.069 100.741 74.431 100.741 67.088C100.741 61.836 95.9801 57.9351 91.1581 55.3881C90.1751 56.6471 89.1921 57.937 88.2101 59.196C91.8961 60.916 95.9501 63.557 95.9501 67.089C95.9501 72.064 87.9341 75.289 84.1251 76.672C74.4501 80.204 62.7791 81.433 52.5521 81.433C42.3251 81.433 30.6521 80.204 20.9781 76.672C17.1691 75.29 9.15308 72.065 9.15308 67.089C9.15308 63.557 13.2071 60.916 16.8931 59.196C15.9131 57.937 14.9301 56.6471 13.9481 55.3881Z" fill="black"/>
</g>
</svg>
