<svg width="57" height="45" viewBox="0 0 57 45" fill="none" xmlns="http://www.w3.org/2000/svg">
<path id="Car battery replacement" d="M19.082 1.89H37.496V4.455H39.359V1.85499C39.3552 1.65777 39.31 1.46354 39.2263 1.28489C39.1427 1.10625 39.0224 0.947152 38.8734 0.817915C38.7243 0.688678 38.5498 0.592174 38.3612 0.534651C38.1725 0.477127 37.9738 0.459874 37.778 0.483991H18.836C18.6402 0.459874 18.4416 0.477127 18.2529 0.534651C18.0642 0.592174 17.8897 0.688678 17.7406 0.817915C17.5916 0.947152 17.4714 1.10625 17.3877 1.28489C17.3041 1.46354 17.2589 1.65777 17.255 1.85499V4.455H19.118V1.89H19.082ZM12.054 6.49C12.0572 6.3999 12.0424 6.31006 12.0103 6.22578C11.9783 6.1415 11.9297 6.06448 11.8675 5.99925C11.8052 5.93402 11.7306 5.88193 11.6479 5.84599C11.5652 5.81005 11.4762 5.791 11.386 5.78999H10.578V3.64601C10.5812 3.55591 10.5664 3.46607 10.5343 3.38179C10.5023 3.29751 10.4537 3.22048 10.3915 3.15526C10.3292 3.09003 10.2546 3.0379 10.1719 3.00197C10.0892 2.96603 10.0002 2.94701 9.91001 2.946H6.29002C6.10997 2.95424 5.94004 3.03161 5.81561 3.162C5.69118 3.29239 5.62183 3.46577 5.62202 3.64601V5.78999H4.81402C4.63397 5.79823 4.46403 5.8756 4.33959 6.00599C4.21516 6.13639 4.14583 6.30977 4.14602 6.49V7.22801H11.983V6.49H12.054ZM47.547 18.122H45.371V20.582H42.911V22.761H45.371V25.221H47.55V22.761H50.01V20.584H47.55L47.547 18.122ZM52.326 6.49C52.3292 6.3999 52.3144 6.31006 52.2823 6.22578C52.2503 6.1415 52.2017 6.06448 52.1395 5.99925C52.0772 5.93402 52.0026 5.88193 51.9199 5.84599C51.8372 5.81005 51.7482 5.791 51.658 5.78999H50.85V3.64601C50.8532 3.55591 50.8384 3.46607 50.8063 3.38179C50.7743 3.29751 50.7258 3.22048 50.6635 3.15526C50.6013 3.09003 50.5266 3.0379 50.4439 3.00197C50.3612 2.96603 50.2722 2.94701 50.182 2.946H46.562C46.382 2.95424 46.212 3.03161 46.0876 3.162C45.9632 3.29239 45.8938 3.46577 45.894 3.64601V5.78999H45.086C44.906 5.79823 44.736 5.8756 44.6116 6.00599C44.4872 6.13639 44.4178 6.30977 44.418 6.49V7.22801H52.255V6.49H52.326ZM56.157 43.99L55.557 42.268C55.4833 42.1174 55.3681 41.9911 55.2249 41.9039C55.0818 41.8167 54.9166 41.7723 54.749 41.776H54.714V13.241H1.86201V41.776H1.82702C1.65853 41.7675 1.49138 41.8099 1.34728 41.8976C1.20319 41.9854 1.08882 42.1144 1.01902 42.268L0.419016 43.99C0.314016 44.271 0.524021 44.482 0.911021 44.482H55.662C56.016 44.484 56.227 44.271 56.156 43.99H56.157ZM10.051 26.7C9.05025 26.7 8.07195 26.4032 7.23983 25.8472C6.40772 25.2912 5.75916 24.501 5.37618 23.5764C4.99321 22.6518 4.89299 21.6344 5.08824 20.6528C5.28348 19.6713 5.76539 18.7697 6.47305 18.062C7.1807 17.3544 8.08231 16.8725 9.06385 16.6772C10.0454 16.482 11.0628 16.5822 11.9874 16.9652C12.912 17.3481 13.7022 17.9967 14.2582 18.8288C14.8142 19.6609 15.111 20.6392 15.111 21.64C15.1105 22.982 14.5771 24.2689 13.628 25.2177C12.679 26.1666 11.392 26.6997 10.05 26.7H10.051ZM22.736 41.884L27.129 31.06L20.241 32.395L32.014 15.175L27.621 26.666L35.809 25.049L22.736 41.884ZM46.492 26.703C45.4913 26.703 44.513 26.4062 43.6808 25.8502C42.8487 25.2942 42.2002 24.504 41.8172 23.5794C41.4342 22.6548 41.334 21.6374 41.5292 20.6558C41.7245 19.6743 42.2064 18.7727 42.9141 18.065C43.6217 17.3574 44.5233 16.8755 45.5048 16.6802C46.4864 16.485 47.5038 16.5852 48.4284 16.9682C49.353 17.3511 50.1432 17.9997 50.6992 18.8318C51.2552 19.6639 51.552 20.6422 51.552 21.643C51.5507 22.9843 51.0171 24.2703 50.0683 25.2184C49.1196 26.1666 47.8333 26.6995 46.492 26.7V26.703ZM6.57101 22.729H13.671V20.55H6.57101V22.729ZM1.33502 12.292H55.208C55.2958 12.2921 55.3827 12.2749 55.4638 12.2414C55.5449 12.2079 55.6186 12.1587 55.6807 12.0966C55.7427 12.0346 55.7919 11.9609 55.8254 11.8798C55.859 11.7987 55.8761 11.7118 55.876 11.624V8.70698C55.8761 8.61922 55.859 8.53232 55.8254 8.45122C55.7919 8.37011 55.7427 8.29641 55.6807 8.23436C55.6186 8.1723 55.5449 8.12311 55.4638 8.08958C55.3827 8.05606 55.2958 8.03885 55.208 8.03898H41.818V5.43901C41.8182 5.35125 41.8009 5.26431 41.7674 5.18321C41.7339 5.10211 41.6847 5.02841 41.6226 4.96635C41.5606 4.9043 41.4869 4.8551 41.4058 4.82158C41.3247 4.78805 41.2378 4.77088 41.15 4.77101H15.392C15.3042 4.77088 15.2173 4.78805 15.1362 4.82158C15.0551 4.8551 14.9814 4.9043 14.9194 4.96635C14.8573 5.02841 14.8081 5.10211 14.7746 5.18321C14.7411 5.26431 14.7239 5.35125 14.724 5.43901V8.00401H1.33502C1.24726 8.00388 1.16034 8.02105 1.07923 8.05458C0.998129 8.0881 0.924431 8.1373 0.862376 8.19935C0.80032 8.26141 0.751124 8.33511 0.7176 8.41621C0.684077 8.49732 0.666886 8.58425 0.667017 8.67201V11.584C0.664752 11.7656 0.733167 11.941 0.857813 12.0731C0.982459 12.2052 1.15358 12.2837 1.33502 12.292Z" fill="white"/>
</svg>
