<svg width="8" height="5" viewBox="0 0 8 5" fill="none" xmlns="http://www.w3.org/2000/svg">
<path id="&#215;&#151;&#215;&#166;&#215;&#153;&#215;&#157;" d="M3.16605 4.622L0.282049 1.606C0.14281 1.46146 0.0666941 1.26752 0.0704448 1.06686C0.0741956 0.866196 0.157506 0.67524 0.302049 0.536001C0.446592 0.396762 0.640527 0.320646 0.841191 0.324397C1.04186 0.328148 1.23281 0.411458 1.37205 0.556001L3.71305 3.005L6.05005 0.556001C6.18892 0.411219 6.37952 0.327394 6.58009 0.322895C6.78066 0.318397 6.97483 0.393591 7.12005 0.532001C7.19183 0.600611 7.24939 0.682688 7.28944 0.773546C7.32949 0.864403 7.35125 0.962261 7.35348 1.06153C7.35571 1.1608 7.33836 1.25954 7.30243 1.3521C7.26649 1.44466 7.21268 1.52924 7.14405 1.601L4.25905 4.623C4.18847 4.69685 4.10365 4.75562 4.00972 4.79577C3.91579 4.83593 3.8147 4.85663 3.71255 4.85663C3.6104 4.85663 3.50931 4.83593 3.41538 4.79577C3.32145 4.75562 3.23663 4.69685 3.16605 4.623V4.622Z" fill="black"/>
</svg>
