<svg width="59" height="42" viewBox="0 0 59 42" fill="none" xmlns="http://www.w3.org/2000/svg">
<g id="icon-logo">
<path id="Path 36" d="M58.004 38.466C57.879 37.596 58.691 36.636 58.026 35.966C57.5753 35.6987 57.08 35.5151 56.564 35.424C56.4207 35.3573 56.2817 35.283 56.147 35.201C56.0124 35.119 55.8834 35.035 55.76 34.949C55.632 34.864 55.507 34.774 55.385 34.681C55.0399 34.4346 54.7165 34.1592 54.418 33.858C54.299 33.697 54.184 33.532 54.07 33.364C53.87 33.071 53.67 32.771 53.47 32.475C53.37 32.327 53.27 32.181 53.16 32.038C52.338 30.575 50.64 30.132 49.31 29.318C49.1767 29.2293 49.0434 29.1363 48.91 29.039C48.738 28.91 48.572 28.773 48.41 28.63C47.882 28.2041 47.4516 27.6697 47.148 27.063C47.07 26.915 46.997 26.763 46.93 26.612C46.0358 25.0808 45.2188 23.5059 44.482 21.893C44.361 21.693 44.242 21.511 44.124 21.333L44.098 21.293H44.068C43.4504 20.3615 42.943 19.3615 42.556 18.313C42.492 18.142 42.435 17.97 42.384 17.796C42.333 17.622 42.29 17.445 42.254 17.267C42.212 17.067 42.18 16.855 42.154 16.645C41.9049 14.589 41.5089 12.5535 40.969 10.554C40.9505 10.3959 40.96 10.2358 40.997 10.081C41.228 8.846 41.997 7.689 41.522 6.489C41.454 6.28891 41.3613 6.09811 41.246 5.921C40.9977 5.54447 40.6522 5.24212 40.246 5.046C40.0567 4.94604 39.855 4.87171 39.646 4.825C39.2115 4.72634 38.757 4.76585 38.346 4.938C38.1638 5.01899 37.993 5.12354 37.838 5.249C37.5982 5.43923 37.4044 5.68105 37.2709 5.95649C37.1374 6.23194 37.0677 6.53392 37.067 6.84C36.9605 7.21162 36.815 7.57094 36.633 7.912C36.627 7.93 36.622 7.949 36.617 7.967C36.572 8.136 36.588 8.221 36.645 8.283C36.6598 8.299 36.6763 8.31341 36.694 8.326C36.8105 8.41474 36.9061 8.52783 36.9744 8.65737C37.0426 8.78691 37.0817 8.92978 37.089 9.076C37.094 9.104 37.1 9.131 37.104 9.158C37.161 9.29456 37.1903 9.44105 37.1903 9.589C37.1903 9.73695 37.161 9.88344 37.104 10.02C37.0925 10.0428 37.0794 10.0648 37.065 10.086C37.0075 10.172 36.9205 10.2338 36.8204 10.2598C36.7203 10.2858 36.6141 10.2741 36.522 10.227C36.3845 10.1701 36.2553 10.0948 36.138 10.003C34.5882 9.17046 32.9768 8.45804 31.318 7.872C30.2143 7.2956 28.9658 7.05569 27.727 7.182C27.5468 7.51926 27.4654 7.90053 27.492 8.282C27.4468 8.29282 27.4038 8.31143 27.365 8.337C27.234 8.466 26.15 8.923 25.943 9.43C26.4468 10.5688 27.2736 11.5347 28.321 12.208C29.7248 13.2102 31.187 14.1279 32.7 14.956L33.407 15.362C33.579 15.485 33.758 15.603 33.936 15.721C34.493 16.121 35.064 16.53 35.603 16.964C35.783 17.1093 35.9587 17.258 36.13 17.41C37.1365 18.1226 37.8983 19.1289 38.311 20.291C38.3748 20.4811 38.4259 20.6752 38.464 20.872C38.5322 21.1331 38.5658 21.4021 38.564 21.672H38.546C38.235 23.011 37.108 24.177 36.415 25.353C36.321 25.52 36.231 25.689 36.143 25.853C35.704 26.698 35.287 27.553 34.786 28.367C34.693 28.527 34.6 28.685 34.513 28.848C34.241 29.3341 34.039 29.8563 33.913 30.399C33.8789 30.6918 33.9306 30.9881 34.062 31.252C34.1889 31.4512 34.3547 31.6229 34.5493 31.7567C34.744 31.8906 34.9635 31.9838 35.195 32.031C36.9975 32.2798 38.7747 32.6864 40.506 33.246C40.654 33.303 40.799 33.365 40.939 33.434C41.739 33.954 41.834 34.928 42 35.871C42.033 36.06 42.069 36.247 42.114 36.424C42.214 36.924 42.436 37.516 42.806 37.59C43.249 37.59 43.175 36.778 43.156 36.29C43.156 36.098 43.147 35.905 43.144 35.713C43.0298 34.7244 43.3057 33.7303 43.913 32.942C43.9873 32.8315 44.0356 32.7056 44.0546 32.5738C44.0736 32.442 44.0626 32.3077 44.0226 32.1807C43.9825 32.0537 43.9144 31.9374 43.8232 31.8403C43.7321 31.7432 43.6203 31.6679 43.496 31.62C43.368 31.5681 43.2334 31.5345 43.096 31.52C42.696 31.471 42.28 31.561 41.869 31.551C41.3405 31.5246 40.8353 31.3254 40.431 30.984C40.0805 30.6482 39.6999 30.3453 39.294 30.079C39.0223 29.9737 38.7572 29.8521 38.5 29.715C38.35 29.615 38.243 29.464 38.338 29.285C38.5844 28.9577 38.8926 28.6818 39.245 28.473C39.4351 28.3191 39.6093 28.1466 39.765 27.958C40.365 27.407 40.441 26.151 41.253 26.299C41.5644 26.432 41.8416 26.6338 42.0638 26.8893C42.286 27.1448 42.4474 27.4472 42.536 27.774C42.626 27.946 42.715 28.121 42.808 28.293C42.9811 28.6383 43.2053 28.9555 43.473 29.234C43.5777 29.3507 43.6844 29.467 43.793 29.583C44.3537 30.1804 44.9512 30.7422 45.582 31.265C45.7314 31.3883 45.8834 31.5103 46.038 31.631C46.5095 31.9781 47.0018 32.296 47.512 32.583C47.6814 32.6797 47.8527 32.774 48.026 32.866C48.774 33.166 49.505 33.461 50.22 33.78C50.3987 33.86 50.577 33.9417 50.755 34.025C52.3945 34.7676 53.935 35.7115 55.341 36.835C55.518 36.9598 55.6794 37.1051 55.822 37.268C56.779 38.368 56.634 39.991 57.279 41.233C57.3587 41.3665 57.4601 41.4858 57.579 41.586C57.801 41.758 57.973 41.668 58.1 41.436C58.465 40.553 58.1 39.736 58.028 38.827C58.016 38.706 58.007 38.586 58 38.468L58.004 38.466ZM28.764 10.066C28.8092 9.97822 28.8384 9.88305 28.85 9.785C28.9633 9.7682 29.0748 9.74075 29.183 9.703C29.2894 9.65587 29.39 9.59682 29.483 9.527C29.5621 9.46833 29.6298 9.39583 29.683 9.313C31.6384 10.3586 33.5079 11.5573 35.274 12.898C33.0006 12.2136 30.8156 11.264 28.764 10.069V10.066Z" fill="#EB2F19"/>
<path id="Path 37" d="M3.50103 36.287C4.1982 35.8815 4.85224 35.4061 5.45303 34.868C7.04151 33.4271 8.46187 31.8112 9.68703 30.051C11.2726 27.8323 12.6899 25.4982 13.927 23.068C15.2782 20.4566 16.4476 17.7552 17.427 14.983C18.2739 12.6317 18.9179 10.2122 19.352 7.75099C19.7151 5.95222 19.7893 4.10712 19.572 2.28499C19.5236 1.9626 19.4507 1.64435 19.354 1.33299C19.2738 1.06565 19.1662 0.807285 19.033 0.561991L19.004 0.516991C18.767 0.779991 18.567 0.956991 18.445 0.967991C18.281 0.980991 18.208 0.730991 18.171 0.377991C17.2796 0.608701 16.4389 1.00343 15.692 1.54199C15.4911 1.93621 15.2311 2.29739 14.921 2.61299C14.8828 2.64607 14.838 2.67065 14.7895 2.68511C14.7411 2.69956 14.6901 2.70357 14.64 2.69686C14.5899 2.69015 14.5418 2.67287 14.4989 2.64617C14.456 2.61947 14.4192 2.58396 14.391 2.54199C13.3583 3.44432 12.4011 4.4296 11.529 5.48799C11.3579 5.94985 11.1315 6.38937 10.855 6.79699C10.6833 7.02796 10.4322 7.18719 10.15 7.24399C9.14143 8.61652 8.20677 10.0419 7.35003 11.514C7.24721 11.9866 7.08491 12.4442 6.86703 12.876C6.66491 13.2207 6.4016 13.5257 6.09003 13.776C5.6747 14.5707 5.26703 15.3933 4.86703 16.244C4.46703 17.0947 4.0977 17.936 3.75903 18.768C3.76645 19.1667 3.70139 19.5635 3.56703 19.939C3.37368 20.3816 3.12504 20.7979 2.82703 21.178C2.24704 22.7805 1.75301 24.4128 1.34703 26.068C1.48435 26.3211 1.52318 26.616 1.45603 26.896C1.32057 27.3695 1.12817 27.8248 0.883031 28.252C0.6299 29.5994 0.487424 30.9653 0.457031 32.336C0.678031 32.352 0.840031 32.436 0.851031 32.697C0.80761 33.1372 0.696993 33.5682 0.523031 33.975C0.589975 34.8935 0.827354 35.7914 1.22303 36.623C1.51803 36.423 1.75603 36.323 1.85103 36.455C1.90722 36.5871 1.92356 36.7327 1.89803 36.874C2.15529 36.841 2.40752 36.7765 2.64903 36.682C2.94417 36.5731 3.23037 36.4414 3.50503 36.288L3.50103 36.287ZM4.58003 28.738C3.60803 28.284 4.92303 23.421 7.51603 17.877C10.109 12.333 12.999 8.20699 13.97 8.66199C14.941 9.11699 13.627 13.979 11.034 19.523C8.44103 25.067 5.55103 29.193 4.58003 28.738Z" fill="black"/>
<path id="Path 38" d="M29.089 13.701C29.6766 11.6708 29.7794 9.53109 29.389 7.45398C29.3141 6.90578 29.1799 6.36731 28.989 5.84798C28.0423 6.33463 27.049 6.7246 26.024 7.01198C26.913 6.56135 27.7629 6.03755 28.565 5.44598C28.36 5.56098 28.2 5.59998 28.127 5.49598C28.0477 5.16122 28.0602 4.81127 28.163 4.48298C28.0767 4.393 27.9845 4.30881 27.887 4.23098L27.917 4.16598L20.141 0.52898C20.103 0.51098 20.065 0.49498 20.027 0.47998C21.0184 1.92267 22.2282 3.20231 23.613 4.27298C22.3939 3.66441 21.2682 2.88451 20.27 1.95698C20.3332 2.30995 20.3766 2.66617 20.4 3.02398C20.4629 4.07189 20.4331 5.12331 20.311 6.16598C21.2103 7.33396 22.254 8.38331 23.417 9.28898C22.2489 8.70305 21.1645 7.96312 20.193 7.08898C19.9535 8.72134 19.6067 10.3362 19.155 11.923C20.1129 13.2503 21.2558 14.4336 22.549 15.437C21.1912 14.7685 19.9583 13.8718 18.904 12.786C18.722 13.3906 18.53 13.9906 18.328 14.586C17.7694 16.238 17.1404 17.8653 16.441 19.468C17.4025 20.8108 18.5535 22.0072 19.858 23.02C18.446 22.3297 17.1734 21.3849 16.104 20.233C15.6914 21.1483 15.258 22.054 14.804 22.95C14.2967 23.95 13.7634 24.9393 13.204 25.918C14.1893 27.3369 15.3858 28.5968 16.752 29.654C16.752 29.654 13.858 28.238 12.809 26.598C12.043 27.898 11.227 29.158 10.351 30.378L10.344 30.388C10.9626 31.8824 11.7887 33.2822 12.798 34.546C11.6192 33.5666 10.6217 32.3877 9.85103 31.063C9.12394 32.056 8.34136 33.0072 7.50703 33.912C7.7668 35.3467 8.20521 36.7432 8.81203 38.069C8.02026 36.977 7.38635 35.7789 6.92903 34.51C6.37167 35.0687 5.77877 35.5908 5.15403 36.073C4.24038 36.8458 3.15016 37.3813 1.98003 37.632C2.16446 37.7941 2.37124 37.9288 2.59403 38.032L10.369 41.669L10.399 41.604C10.5214 41.6291 10.6454 41.6458 10.77 41.654C11.09 41.27 11.365 40.99 11.524 40.977C11.683 40.964 11.761 41.214 11.798 41.567C12.3909 41.4239 12.9601 41.1963 13.488 40.891C12.6356 40.8491 11.7876 40.7408 10.952 40.567C12.092 40.5795 13.2305 40.4831 14.352 40.279C14.5354 39.9293 14.7715 39.6098 15.052 39.332C15.0903 39.2989 15.1351 39.2743 15.1835 39.2599C15.232 39.2454 15.2829 39.2414 15.333 39.2481C15.3831 39.2548 15.4312 39.2721 15.4742 39.2988C15.5171 39.3255 15.5539 39.361 15.582 39.403C16.3305 38.7545 17.0366 38.0588 17.696 37.32C16.6505 37.5781 15.5812 37.7282 14.505 37.768C15.8969 37.4404 17.2435 36.9441 18.515 36.29C18.6693 35.8873 18.8707 35.5043 19.115 35.149C19.2884 34.9187 19.541 34.7608 19.824 34.706C20.614 33.637 21.4 32.467 22.164 31.206C21.207 31.7017 20.2018 32.0981 19.164 32.389C20.4502 31.7391 21.6513 30.933 22.74 29.989C22.826 29.6696 22.9464 29.3604 23.099 29.067C23.3012 28.7222 23.5645 28.4173 23.876 28.167C24.296 27.367 24.7044 26.544 25.101 25.698C25.3204 25.228 25.532 24.7613 25.736 24.298C24.646 24.9286 23.4803 25.4185 22.267 25.756C23.7078 25.034 25.0398 24.113 26.224 23.02C26.2298 22.6742 26.2933 22.3318 26.412 22.007C26.6054 21.5644 26.854 21.1481 27.152 20.768C27.652 19.38 28.074 18.027 28.418 16.728C27.3332 17.3524 26.1741 17.8379 24.968 18.173C26.2656 17.5181 27.4766 16.7042 28.573 15.75C28.4855 15.5272 28.4684 15.2828 28.524 15.05C28.6595 14.5765 28.8519 14.1211 29.097 13.694L29.089 13.701Z" fill="black"/>
</g>
</svg>
