<svg width="21" height="21" viewBox="0 0 21 21" fill="none" xmlns="http://www.w3.org/2000/svg">
<path id="Path 22" d="M3.57104 10.935L1.7771 20.407C1.76671 20.4677 1.77304 20.53 1.79541 20.5874C1.81778 20.6447 1.85533 20.6949 1.90405 20.7325C1.95277 20.7701 2.01076 20.7938 2.0719 20.8009C2.13304 20.808 2.19503 20.7984 2.2511 20.773L8.48303 17.822L13.3761 20.43C13.4272 20.4575 13.4846 20.4713 13.5426 20.4699C13.6006 20.4685 13.6573 20.452 13.707 20.422L20.0981 16.386C20.1686 16.3413 20.2199 16.2722 20.2424 16.1919C20.265 16.1116 20.257 16.0258 20.2201 15.951L18.9641 13.443C21.6431 10.204 19.879 5.48401 15.55 5.34301C14.4897 5.34467 13.4611 5.7042 12.6306 6.36338C11.8001 7.02255 11.2164 7.94276 10.9741 8.975L8.80713 7.818C9.18922 7.19857 9.4225 6.49899 9.48865 5.77421C9.55479 5.04942 9.452 4.31918 9.18835 3.64081C8.9247 2.96245 8.50735 2.35445 7.96912 1.86457C7.43088 1.37468 6.78641 1.01624 6.0863 0.817418C5.38619 0.618591 4.64946 0.584778 3.93408 0.718648C3.2187 0.852518 2.5441 1.15042 1.96326 1.58895C1.38242 2.02748 0.911219 2.5947 0.586548 3.24607C0.261877 3.89743 0.0925541 4.61521 0.092041 5.34301C0.092041 7.80501 2.23214 9.875 3.57214 10.93L3.57104 10.935ZM19.4821 15.98L13.8701 19.524V15.266C14.3424 15.6754 14.8437 16.05 15.3701 16.387C15.4231 16.4194 15.484 16.4366 15.5461 16.4366C15.6083 16.4366 15.6691 16.4194 15.722 16.387C16.7498 15.7263 17.683 14.929 18.4961 14.017L19.4821 15.98ZM15.55 6.02001C16.6191 6.02107 17.6441 6.44621 18.4 7.20212C19.1559 7.95804 19.581 8.98298 19.582 10.052C19.582 12.812 16.347 15.162 15.55 15.7C14.75 15.162 11.5171 12.816 11.5171 10.052C11.5184 8.98289 11.9438 7.95795 12.6998 7.20206C13.4559 6.44617 14.4809 6.02107 15.55 6.02001ZM8.8291 8.597L10.8641 9.683C10.6741 11.634 11.9581 13.44 13.1971 14.649V19.574L8.8291 17.244V8.597ZM8.1571 17.233L2.55713 19.884L4.16711 11.384C4.41711 11.56 4.58407 11.665 4.61707 11.684C4.67008 11.7163 4.731 11.7334 4.79309 11.7334C4.85519 11.7334 4.9161 11.7163 4.96912 11.684C6.18107 10.9074 7.25702 9.93676 8.15405 8.81101V17.234L8.1571 17.233ZM4.79614 1.31501C5.86527 1.31659 6.89013 1.742 7.64612 2.49799C8.40211 3.25398 8.82751 4.27887 8.8291 5.348C8.8291 8.107 5.59414 10.458 4.79614 10.995C3.99614 10.458 0.763062 8.111 0.763062 5.348C0.764649 4.27887 1.19005 3.25398 1.94604 2.49799C2.70204 1.742 3.72701 1.31659 4.79614 1.31501Z" fill="white"/>
</svg>
