<svg width="5" height="6" viewBox="0 0 5 6" fill="none" xmlns="http://www.w3.org/2000/svg">
<path id="Path 23" d="M4.90215 3.052C4.91522 2.73524 4.86408 2.4191 4.75188 2.12259C4.63967 1.82608 4.4687 1.5553 4.24919 1.32655C4.02969 1.0978 3.76617 0.915795 3.47453 0.791458C3.1829 0.667121 2.8692 0.603027 2.55217 0.603027C2.23514 0.603027 1.92132 0.667121 1.62968 0.791458C1.33805 0.915795 1.07453 1.0978 0.855027 1.32655C0.635521 1.5553 0.464548 1.82608 0.352341 2.12259C0.240134 2.4191 0.189001 2.73524 0.202072 3.052C0.237069 3.65156 0.499946 4.21506 0.936814 4.62717C1.37368 5.03928 1.9516 5.26883 2.55217 5.26883C3.15274 5.26883 3.73054 5.03928 4.1674 4.62717C4.60427 4.21506 4.86715 3.65156 4.90215 3.052ZM4.23015 3.052C4.23298 3.42241 4.11338 3.78337 3.88994 4.07881C3.6665 4.37425 3.35174 4.58762 2.99455 4.68576C2.63737 4.7839 2.25774 4.76131 1.91472 4.62151C1.5717 4.4817 1.28452 4.2325 1.0977 3.91264C0.91088 3.59279 0.834899 3.22018 0.881638 2.85272C0.928376 2.48526 1.09518 2.14353 1.35613 1.88063C1.61707 1.61773 1.95753 1.44838 2.32463 1.3989C2.69173 1.34941 3.06491 1.42257 3.38615 1.60699C3.64077 1.75317 3.8527 1.96349 4.00078 2.21701C4.14885 2.47053 4.22791 2.75841 4.23015 3.052Z" fill="white"/>
</svg>
