<svg width="94" height="21" viewBox="0 0 94 21" fill="none" xmlns="http://www.w3.org/2000/svg">
<g id="Group 32">
<g id="Group 24">
<path id="Rectangle 17" d="M93.6271 10.811C93.6271 5.24672 89.1163 0.735992 83.5521 0.735992C77.9878 0.735992 73.4771 5.24672 73.4771 10.811C73.4771 16.3753 77.9878 20.886 83.5521 20.886C89.1163 20.886 93.6271 16.3753 93.6271 10.811Z" fill="#100F11"/>
<g id="Group 23">
<g id="Group 22">
<path id="Path 11" d="M77.919 17.438L78.462 14.48C77.4566 13.3765 76.8971 11.9388 76.892 10.446C76.8912 9.60338 77.0709 8.77036 77.419 8.003C77.76 7.25149 78.2471 6.57536 78.852 6.014C79.4665 5.43952 80.1841 4.98655 80.967 4.679C82.6284 4.02696 84.4747 4.02696 86.136 4.679C86.9194 4.98631 87.6374 5.4393 88.252 6.014C88.8569 6.57536 89.3441 7.25149 89.685 8.003C90.0324 8.77061 90.212 9.60346 90.212 10.446C90.212 11.2885 90.0324 12.1214 89.685 12.889C89.3441 13.6405 88.8569 14.3166 88.252 14.878C87.6374 15.4527 86.9194 15.9057 86.136 16.213C84.4205 16.8864 82.5099 16.8635 80.811 16.149L77.919 17.438ZM83.552 4.925C82.0352 4.87501 80.5602 5.4278 79.4499 6.46245C78.3395 7.4971 77.6841 8.92938 77.627 10.446C77.6344 11.8159 78.172 13.1298 79.127 14.112L79.256 14.248L78.898 16.199L80.815 15.344L80.966 15.412C81.7795 15.7808 82.6629 15.9701 83.556 15.967C85.0729 16.017 86.5478 15.4642 87.6582 14.4296C88.7685 13.3949 89.424 11.9626 89.481 10.446C89.4247 8.92814 88.7691 7.49447 87.6578 6.45906C86.5465 5.42366 85.0701 4.87094 83.552 4.922V4.925Z" fill="white"/>
</g>
<path id="Path 12" d="M86.8681 11.987C86.6681 11.8744 86.4613 11.7742 86.2491 11.687C85.9651 11.548 85.7601 11.459 85.6111 11.403C85.5111 11.368 85.301 11.272 85.224 11.333C84.984 11.533 84.731 12.082 84.46 12.186C83.7779 12.0026 83.16 11.6336 82.675 11.12C82.4102 10.8263 82.1741 10.5078 81.97 10.169C81.955 10.006 82.246 9.78901 82.31 9.66901C82.648 9.28801 82.391 9.05201 82.348 8.89201C82.273 8.72801 82.1401 8.43801 82.0271 8.19201C81.9271 8.03401 81.9091 7.80301 81.7321 7.71301C80.9901 7.33201 80.568 8.09401 80.393 8.49101C79.346 11.015 85.648 15.824 86.929 12.514C86.994 12.226 86.9691 12.12 86.8681 11.987Z" fill="white"/>
</g>
</g>
<g id="Group 25">
<path id="Rectangle 18" d="M69.325 10.811C69.325 5.24672 64.8143 0.735992 59.25 0.735992C53.6858 0.735992 49.175 5.24672 49.175 10.811C49.175 16.3753 53.6858 20.886 59.25 20.886C64.8143 20.886 69.325 16.3753 69.325 10.811Z" fill="#100F11"/>
<path id="Rectangle 19" d="M64.263 6.21799H54.237C52.8977 6.21799 51.812 7.3037 51.812 8.64299V12.98C51.812 14.3193 52.8977 15.405 54.237 15.405H64.263C65.6023 15.405 66.688 14.3193 66.688 12.98V8.64299C66.688 7.3037 65.6023 6.21799 64.263 6.21799Z" fill="white"/>
<path id="Path 13" d="M61.18 10.811L57.319 8.582V13.038L61.18 10.811Z" fill="#100F11"/>
</g>
<g id="Group 29">
<path id="Rectangle 20" d="M45.023 10.811C45.023 5.24672 40.5123 0.735992 34.948 0.735992C29.3838 0.735992 24.873 5.24672 24.873 10.811C24.873 16.3753 29.3838 20.886 34.948 20.886C40.5123 20.886 45.023 16.3753 45.023 10.811Z" fill="#100F11"/>
<g id="Group 28">
<g id="Group 26">
<path id="Path 14" d="M39.3501 17.425H30.545C29.9589 17.4242 29.397 17.191 28.9825 16.7765C28.568 16.3621 28.3348 15.8001 28.334 15.214V6.409C28.3348 5.82285 28.568 5.26093 28.9825 4.84646C29.397 4.43199 29.9589 4.19879 30.545 4.198H39.3501C39.9362 4.19879 40.4981 4.43199 40.9126 4.84646C41.3271 5.26093 41.5603 5.82285 41.5611 6.409V15.214C41.5603 15.8001 41.3271 16.3621 40.9126 16.7765C40.4981 17.191 39.9362 17.4242 39.3501 17.425ZM30.545 4.925C30.1508 4.92553 29.7729 5.08236 29.4942 5.36111C29.2154 5.63987 29.0586 6.01778 29.058 6.412V15.217C29.0586 15.6112 29.2154 15.9891 29.4942 16.2679C29.7729 16.5466 30.1508 16.7035 30.545 16.704H39.3501C39.7443 16.7035 40.1222 16.5466 40.4009 16.2679C40.6797 15.9891 40.8365 15.6112 40.8371 15.217V6.409C40.8365 6.01478 40.6797 5.63687 40.4009 5.35812C40.1222 5.07936 39.7443 4.92253 39.3501 4.922L30.545 4.925Z" fill="white"/>
</g>
<g id="Group 27">
<path id="Path 15" d="M34.948 14.205C34.1628 14.205 33.4019 13.9327 32.7949 13.4345C32.188 12.9363 31.7725 12.2431 31.6194 11.473C31.4662 10.7028 31.5848 9.90343 31.955 9.21095C32.3252 8.51846 32.924 7.97575 33.6495 7.67529C34.375 7.37483 35.1822 7.33521 35.9336 7.56318C36.685 7.79114 37.3341 8.27259 37.7703 8.92549C38.2065 9.57839 38.4028 10.3623 38.3258 11.1438C38.2489 11.9252 37.9033 12.6558 37.348 13.211C37.0336 13.5272 36.6596 13.7778 36.2476 13.9485C35.8357 14.1191 35.3939 14.2063 34.948 14.205ZM34.948 8.14099C34.42 8.14099 33.9037 8.29759 33.4647 8.59097C33.0256 8.88435 32.6834 9.30135 32.4813 9.78923C32.2792 10.2771 32.2263 10.814 32.3293 11.3319C32.4324 11.8498 32.6867 12.3256 33.0601 12.699C33.4335 13.0724 33.9092 13.3267 34.4271 13.4297C34.9451 13.5327 35.4819 13.4798 35.9698 13.2778C36.4577 13.0757 36.8747 12.7334 37.1681 12.2944C37.4615 11.8553 37.618 11.3391 37.618 10.811C37.618 10.1026 37.3368 9.42316 36.8362 8.92196C36.3356 8.42076 35.6564 8.13879 34.948 8.13799V8.14099Z" fill="white"/>
</g>
<path id="Path 16" d="M39.8101 6.03799C39.8101 6.16675 39.7719 6.29261 39.7003 6.39967C39.6288 6.50673 39.5271 6.59017 39.4082 6.63944C39.2892 6.68871 39.1583 6.7016 39.0321 6.67648C38.9058 6.65136 38.7898 6.58936 38.6987 6.49832C38.6077 6.40728 38.5457 6.29128 38.5206 6.165C38.4954 6.03872 38.5083 5.90782 38.5576 5.78887C38.6069 5.66991 38.6903 5.56824 38.7974 5.49671C38.9044 5.42517 39.0303 5.38699 39.1591 5.38699C39.3317 5.38699 39.4973 5.45558 39.6194 5.57767C39.7415 5.69975 39.8101 5.86534 39.8101 6.03799Z" fill="white"/>
</g>
</g>
<g id="Group 31">
<path id="Rectangle 21" d="M20.721 10.811C20.721 5.24672 16.2103 0.735992 10.646 0.735992C5.08178 0.735992 0.571045 5.24672 0.571045 10.811C0.571045 16.3753 5.08178 20.886 10.646 20.886C16.2103 20.886 20.721 16.3753 20.721 10.811Z" fill="#100F11"/>
<g id="Group 30">
<path id="Path 17" d="M11.6291 12.008V18.157H8.80208V12.008H6.45508V9.516H8.80208V8.605C8.80208 5.236 10.2021 3.466 13.1851 3.466C13.7436 3.46044 14.2989 3.5504 14.8271 3.732V6.198C14.401 6.09775 13.9648 6.04741 13.5271 6.048C13.2652 6.02429 13.0015 6.0646 12.7586 6.16546C12.5158 6.26633 12.3011 6.42472 12.1331 6.627C11.7401 7.21874 11.5634 7.92805 11.6331 8.635V9.516H14.8331L13.9731 12.008H11.6291Z" fill="white"/>
</g>
</g>
</g>
</svg>
